<svg width="58" height="24" viewBox="0 0 58 24" fill="none" xmlns="http://www.w3.org/2000/svg" xmlns:xlink="http://www.w3.org/1999/xlink">
<path d="M27.502,17.229L25.405,17.229L25.405,0.912L30.964,0.912C32.373,0.912 33.574,1.382 34.557,2.321C35.562,3.26 36.064,4.407 36.064,5.761C36.064,7.148 35.562,8.295 34.557,9.223C33.585,10.152 32.384,10.61 30.964,10.61L27.502,10.61L27.502,17.229ZM27.502,2.922L27.502,8.612L31.008,8.612C31.838,8.612 32.537,8.328 33.083,7.771C33.64,7.214 33.924,6.537 33.924,5.772C33.924,5.019 33.64,4.352 33.083,3.795C32.537,3.216 31.849,2.933 31.008,2.933L27.502,2.933L27.502,2.922Z" fill="#3C4043"/>
<path d="M41.547,5.696C43.097,5.696 44.321,6.111 45.216,6.941C46.112,7.771 46.559,8.907 46.559,10.348L46.559,17.229L44.561,17.229L44.561,15.678L44.473,15.678C43.611,16.956 42.453,17.589 41.011,17.589C39.777,17.589 38.751,17.229 37.921,16.497C37.091,15.765 36.676,14.859 36.676,13.767C36.676,12.609 37.112,11.691 37.986,11.014C38.86,10.326 40.028,9.988 41.481,9.988C42.726,9.988 43.753,10.217 44.55,10.676L44.55,10.195C44.55,9.464 44.266,8.852 43.687,8.339C43.108,7.825 42.431,7.574 41.656,7.574C40.487,7.574 39.559,8.066 38.882,9.059L37.036,7.902C38.052,6.427 39.559,5.696 41.547,5.696ZM38.838,13.799C38.838,14.345 39.067,14.804 39.537,15.164C39.996,15.525 40.542,15.711 41.164,15.711C42.049,15.711 42.835,15.383 43.523,14.728C44.211,14.072 44.561,13.308 44.561,12.423C43.906,11.91 42.999,11.648 41.83,11.648C40.979,11.648 40.269,11.855 39.701,12.259C39.122,12.685 38.838,13.199 38.838,13.799Z" fill="#3C4043"/>
<path d="M57.961,6.056L50.972,22.132L48.809,22.132L51.409,16.508L46.8,6.056L49.082,6.056L52.402,14.072L52.446,14.072L55.679,6.056L57.961,6.056Z" fill="#3C4043"/>
<path d="M19.161,9.289C19.161,8.605 19.1,7.951 18.986,7.322L10.197,7.322L10.197,10.926L15.259,10.927C15.054,12.126 14.393,13.148 13.381,13.83L13.381,16.168L16.394,16.168C18.153,14.54 19.161,12.133 19.161,9.289Z" fill="#4285F4"/>
<path d="M13.382,13.83C12.543,14.396 11.463,14.727 10.199,14.727C7.758,14.727 5.688,13.082 4.946,10.865L1.838,10.865L1.838,13.276C3.378,16.332 6.543,18.429 10.199,18.429C12.726,18.429 14.849,17.598 16.395,16.167L13.382,13.83Z" fill="#34A853"/>
<path d="M4.653,9.076C4.653,8.453 4.757,7.852 4.946,7.286L4.946,4.874L1.838,4.874C1.201,6.138 0.843,7.564 0.843,9.076C0.843,10.587 1.202,12.014 1.838,13.277L4.946,10.866C4.757,10.3 4.653,9.698 4.653,9.076Z" fill="#FABB05"/>
<path d="M10.199,3.424C11.578,3.424 12.814,3.899 13.789,4.827L16.459,2.159C14.837,0.649 12.723,-0.278 10.199,-0.278C6.544,-0.278 3.378,1.819 1.838,4.874L4.946,7.286C5.687,5.069 7.758,3.424 10.199,3.424Z" fill="#E94235"/>
</svg>
