<svg width="28" height="28" viewBox="0 0 28 28" fill="none" xmlns="http://www.w3.org/2000/svg" xmlns:xlink="http://www.w3.org/1999/xlink">
<path d="M14.002,2.894C17.619,2.894 18.047,2.908 19.476,2.973C20.336,2.984 21.187,3.141 21.993,3.44C22.577,3.665 23.108,4.01 23.551,4.453C23.994,4.896 24.339,5.427 24.564,6.011C24.862,6.817 25.02,7.668 25.031,8.527C25.095,9.956 25.109,10.385 25.109,14.002C25.109,17.62 25.096,18.048 25.031,19.477C25.02,20.336 24.862,21.187 24.564,21.993C24.339,22.578 23.994,23.108 23.551,23.551C23.108,23.994 22.577,24.339 21.993,24.565C21.187,24.863 20.336,25.021 19.476,25.031C18.048,25.096 17.62,25.11 14.002,25.11C10.383,25.11 9.955,25.096 8.527,25.031C7.667,25.021 6.816,24.863 6.011,24.565C5.426,24.339 4.895,23.994 4.452,23.551C4.01,23.108 3.664,22.578 3.439,21.993C3.141,21.187 2.983,20.336 2.972,19.477C2.908,18.048 2.894,17.62 2.894,14.002C2.894,10.385 2.907,9.956 2.972,8.527C2.983,7.668 3.141,6.817 3.439,6.011C3.664,5.427 4.01,4.896 4.452,4.453C4.895,4.01 5.426,3.665 6.011,3.44C6.816,3.141 7.667,2.984 8.527,2.973C9.956,2.909 10.384,2.894 14.002,2.894L14.002,2.894ZM14.002,0.453C10.324,0.453 9.861,0.469 8.416,0.534C7.291,0.557 6.179,0.77 5.125,1.164C4.222,1.505 3.403,2.038 2.727,2.727C2.037,3.404 1.503,4.223 1.163,5.127C0.768,6.18 0.555,7.293 0.533,8.417C0.469,9.861 0.453,10.324 0.453,14.002C0.453,17.679 0.469,18.142 0.534,19.587C0.557,20.712 0.77,21.824 1.164,22.878C1.504,23.782 2.038,24.601 2.727,25.277C3.404,25.967 4.223,26.5 5.127,26.84C6.18,27.235 7.293,27.448 8.417,27.47C9.862,27.534 10.323,27.551 14.003,27.551C17.682,27.551 18.143,27.536 19.589,27.47C20.713,27.448 21.826,27.235 22.879,26.84C23.779,26.492 24.596,25.959 25.278,25.276C25.96,24.594 26.492,23.776 26.84,22.876C27.235,21.823 27.448,20.711 27.47,19.586C27.534,18.142 27.55,17.679 27.55,14.002C27.55,10.324 27.534,9.861 27.469,8.416C27.446,7.291 27.233,6.179 26.839,5.125C26.499,4.221 25.965,3.403 25.276,2.726C24.599,2.037 23.78,1.503 22.876,1.163C21.823,0.768 20.711,0.555 19.586,0.533C18.142,0.469 17.679,0.453 14.002,0.453Z" fill="#000000"/>
<path d="M14.004,7.047C12.628,7.047 11.283,7.455 10.139,8.219C8.995,8.984 8.103,10.07 7.576,11.342C7.05,12.613 6.912,14.012 7.181,15.362C7.449,16.711 8.112,17.951 9.085,18.924C10.058,19.897 11.297,20.56 12.647,20.828C13.997,21.096 15.395,20.959 16.667,20.432C17.938,19.906 19.025,19.014 19.789,17.87C20.554,16.725 20.962,15.38 20.962,14.004C20.962,12.159 20.229,10.389 18.924,9.085C17.619,7.78 15.85,7.047 14.004,7.047ZM14.004,18.52C13.111,18.52 12.238,18.256 11.495,17.759C10.753,17.263 10.174,16.558 9.832,15.733C9.49,14.907 9.401,13.999 9.575,13.123C9.749,12.247 10.179,11.442 10.811,10.811C11.442,10.179 12.247,9.749 13.123,9.575C13.999,9.401 14.907,9.49 15.733,9.832C16.558,10.174 17.263,10.753 17.759,11.495C18.256,12.238 18.52,13.111 18.52,14.004C18.52,15.202 18.045,16.351 17.198,17.198C16.351,18.045 15.202,18.52 14.004,18.52L14.004,18.52Z" fill="#000000"/>
<path d="M21.235,8.396C22.133,8.396 22.861,7.668 22.861,6.77C22.861,5.872 22.133,5.145 21.235,5.145C20.337,5.145 19.609,5.872 19.609,6.77C19.609,7.668 20.337,8.396 21.235,8.396Z" fill="#000000"/>
</svg>
