<svg width="52" height="32" viewBox="0 0 52 32" fill="none" xmlns="http://www.w3.org/2000/svg" xmlns:xlink="http://www.w3.org/1999/xlink">
<path d="M32.54,3.697L18.813,3.697L18.813,28.364L32.54,28.364L32.54,3.697Z" fill="#FF5F00"/>
<path d="M19.685,16.03C19.683,13.655 20.221,11.31 21.259,9.173C22.297,7.036 23.808,5.163 25.677,3.697C23.362,1.878 20.583,0.746 17.656,0.432C14.73,0.118 11.773,0.634 9.126,1.92C6.478,3.207 4.246,5.212 2.685,7.707C1.123,10.203 0.295,13.087 0.295,16.03C0.295,18.974 1.123,21.858 2.685,24.353C4.246,26.848 6.478,28.854 9.126,30.14C11.773,31.427 14.73,31.942 17.656,31.628C20.583,31.314 23.362,30.183 25.677,28.364C23.808,26.897 22.297,25.024 21.259,22.888C20.221,20.751 19.683,18.406 19.685,16.03Z" fill="#EB001B"/>
<path d="M51.058,16.03C51.058,18.974 50.23,21.858 48.668,24.353C47.107,26.848 44.874,28.854 42.227,30.14C39.579,31.427 36.623,31.942 33.697,31.628C30.77,31.314 27.991,30.183 25.677,28.364C27.544,26.896 29.053,25.023 30.091,22.886C31.129,20.75 31.668,18.406 31.668,16.03C31.668,13.655 31.129,11.311 30.091,9.174C29.053,7.038 27.544,5.165 25.677,3.697C27.991,1.878 30.77,0.746 33.697,0.432C36.623,0.118 39.579,0.634 42.227,1.92C44.874,3.207 47.107,5.212 48.668,7.707C50.23,10.203 51.058,13.087 51.058,16.03Z" fill="#F79E1B"/>
<path d="M49.561,25.751L49.561,25.246L49.765,25.246L49.765,25.143L49.246,25.143L49.246,25.246L49.45,25.246L49.45,25.751L49.561,25.751ZM50.568,25.751L50.568,25.142L50.409,25.142L50.226,25.561L50.043,25.142L49.884,25.142L49.884,25.751L49.996,25.751L49.996,25.292L50.168,25.688L50.284,25.688L50.456,25.291L50.456,25.751L50.568,25.751Z" fill="#F79E1B"/>
</svg>
