<svg width="54" height="22" viewBox="0 0 54 22" fill="none" xmlns="http://www.w3.org/2000/svg" xmlns:xlink="http://www.w3.org/1999/xlink">
<path d="M9.84,2.163C10.462,1.385 10.884,0.341 10.773,-0.727C9.862,-0.681 8.751,-0.126 8.108,0.653C7.53,1.319 7.019,2.408 7.152,3.43C8.174,3.519 9.195,2.92 9.84,2.163Z" fill="#000008"/>
<path d="M10.761,3.63C9.277,3.542 8.015,4.473 7.306,4.473C6.597,4.473 5.511,3.675 4.337,3.696C2.809,3.719 1.391,4.583 0.616,5.957C-0.979,8.706 0.195,12.783 1.746,15.022C2.499,16.13 3.407,17.349 4.603,17.305C5.733,17.261 6.176,16.574 7.549,16.574C8.922,16.574 9.321,17.305 10.517,17.283C11.758,17.261 12.533,16.175 13.287,15.066C14.151,13.804 14.504,12.585 14.527,12.518C14.504,12.495 12.134,11.586 12.113,8.86C12.09,6.578 13.973,5.492 14.062,5.425C12.998,3.852 11.337,3.675 10.761,3.63Z" fill="#000008"/>
<path d="M23.685,0.541C26.911,0.541 29.158,2.765 29.158,6.003C29.158,9.252 26.865,11.487 23.604,11.487L20.032,11.487L20.032,17.167L17.452,17.167L17.452,0.541L23.685,0.541ZM20.032,9.321L22.993,9.321C25.24,9.321 26.519,8.111 26.519,6.014C26.519,3.917 25.24,2.719 23.005,2.719L20.032,2.719L20.032,9.321Z" fill="#000008"/>
<path d="M29.832,13.722C29.832,11.602 31.456,10.3 34.337,10.139L37.655,9.943L37.655,9.01C37.655,7.662 36.745,6.855 35.224,6.855C33.784,6.855 32.885,7.546 32.666,8.63L30.316,8.63C30.454,6.44 32.321,4.827 35.316,4.827C38.255,4.827 40.132,6.383 40.132,8.814L40.132,17.167L37.747,17.167L37.747,15.174L37.69,15.174C36.987,16.522 35.455,17.375 33.865,17.375C31.491,17.375 29.832,15.9 29.832,13.722ZM37.655,12.628L37.655,11.672L34.671,11.856C33.185,11.96 32.344,12.616 32.344,13.653C32.344,14.713 33.219,15.405 34.556,15.405C36.296,15.405 37.655,14.206 37.655,12.628Z" fill="#000008"/>
<path d="M42.384,21.627L42.384,19.61C42.568,19.656 42.983,19.656 43.191,19.656C44.343,19.656 44.965,19.172 45.345,17.928C45.345,17.905 45.564,17.191 45.564,17.179L41.186,5.046L43.882,5.046L46.947,14.909L46.993,14.909L50.058,5.046L52.685,5.046L48.145,17.801C47.108,20.739 45.91,21.684 43.398,21.684C43.191,21.684 42.568,21.661 42.384,21.627Z" fill="#000008"/>
</svg>
