<svg width="70" height="18" viewBox="0 0 70 18" fill="none" xmlns="http://www.w3.org/2000/svg" xmlns:xlink="http://www.w3.org/1999/xlink">
<path d="M8.851,-0.708L3.476,-0.708C3.109,-0.708 2.796,-0.441 2.738,-0.078L0.564,13.704C0.521,13.976 0.732,14.221 1.008,14.221L3.574,14.221C3.942,14.221 4.254,13.954 4.312,13.59L4.898,9.873C4.955,9.509 5.268,9.242 5.635,9.242L7.337,9.242C10.878,9.242 12.921,7.529 13.455,4.134C13.695,2.649 13.465,1.482 12.769,0.664C12.005,-0.233 10.65,-0.708 8.851,-0.708ZM9.471,4.325C9.178,6.254 7.704,6.254 6.279,6.254L5.468,6.254L6.037,2.652C6.071,2.435 6.259,2.274 6.479,2.274L6.851,2.274C7.822,2.274 8.738,2.274 9.211,2.828C9.493,3.158 9.579,3.648 9.471,4.325ZM24.919,4.264L22.345,4.264C22.125,4.264 21.936,4.424 21.902,4.642L21.788,5.362L21.608,5.101C21.051,4.292 19.808,4.022 18.568,4.022C15.724,4.022 13.294,6.176 12.821,9.198C12.575,10.705 12.925,12.146 13.78,13.151C14.564,14.075 15.687,14.46 17.022,14.46C19.314,14.46 20.585,12.987 20.585,12.987L20.47,13.702C20.427,13.975 20.637,14.22 20.912,14.22L23.23,14.22C23.599,14.22 23.91,13.953 23.968,13.589L25.359,4.781C25.403,4.51 25.193,4.264 24.919,4.264ZM21.331,9.273C21.082,10.743 19.915,11.73 18.427,11.73C17.679,11.73 17.082,11.49 16.698,11.036C16.318,10.585 16.173,9.943 16.294,9.228C16.526,7.77 17.713,6.751 19.179,6.751C19.91,6.751 20.504,6.994 20.895,7.452C21.287,7.915 21.443,8.561 21.331,9.273ZM36.04,4.263L38.627,4.263C38.989,4.263 39.201,4.67 38.995,4.967L30.392,17.383C30.253,17.584 30.023,17.704 29.778,17.704L27.195,17.704C26.831,17.704 26.618,17.294 26.829,16.996L29.508,13.216L26.659,4.856C26.56,4.565 26.775,4.263 27.084,4.263L29.626,4.263C29.956,4.263 30.247,4.48 30.342,4.796L31.854,9.845L35.422,4.591C35.562,4.386 35.794,4.263 36.04,4.263Z" clip-rule="evenodd" fill-rule="evenodd" fill="#253B80"/>
<path d="M64.085,13.702L66.291,-0.331C66.325,-0.549 66.514,-0.709 66.733,-0.71L69.217,-0.71C69.491,-0.71 69.701,-0.464 69.658,-0.192L67.483,13.589C67.426,13.952 67.113,14.22 66.745,14.22L64.527,14.22C64.253,14.22 64.042,13.974 64.085,13.702ZM47.192,-0.709L41.816,-0.709C41.449,-0.709 41.136,-0.442 41.078,-0.079L38.904,13.702C38.861,13.974 39.072,14.22 39.346,14.22L42.105,14.22C42.361,14.22 42.58,14.033 42.62,13.778L43.237,9.872C43.294,9.508 43.608,9.241 43.975,9.241L45.675,9.241C49.217,9.241 51.26,7.527 51.794,4.133C52.035,2.647 51.803,1.48 51.108,0.663C50.345,-0.234 48.99,-0.709 47.192,-0.709ZM47.812,4.324C47.519,6.253 46.045,6.253 44.619,6.253L43.809,6.253L44.379,2.651C44.412,2.434 44.599,2.273 44.82,2.273L45.192,2.273C46.162,2.273 47.078,2.273 47.551,2.826C47.834,3.157 47.919,3.647 47.812,4.324ZM63.257,4.262L60.685,4.262C60.464,4.262 60.276,4.423 60.243,4.641L60.129,5.36L59.949,5.1C59.391,4.291 58.15,4.021 56.909,4.021C54.065,4.021 51.636,6.175 51.163,9.196C50.918,10.703 51.266,12.145 52.121,13.15C52.907,14.074 54.028,14.459 55.363,14.459C57.655,14.459 58.926,12.985 58.926,12.985L58.811,13.701C58.768,13.974 58.979,14.219 59.255,14.219L61.572,14.219C61.939,14.219 62.252,13.952 62.309,13.588L63.701,4.78C63.744,4.509 63.533,4.262 63.257,4.262ZM59.67,9.272C59.423,10.742 58.254,11.729 56.765,11.729C56.02,11.729 55.421,11.489 55.037,11.035C54.657,10.584 54.514,9.942 54.633,9.227C54.867,7.769 56.052,6.75 57.518,6.75C58.249,6.75 58.843,6.992 59.234,7.451C59.628,7.914 59.784,8.559 59.67,9.272Z" clip-rule="evenodd" fill-rule="evenodd" fill="#179BD7"/>
</svg>
