<svg width="32" height="38" viewBox="0 0 32 38" fill="none" xmlns="http://www.w3.org/2000/svg" xmlns:xlink="http://www.w3.org/1999/xlink">
<path d="M31.09,22.59L17.59,36.09C17.381,36.3 17.133,36.466 16.859,36.58C16.586,36.693 16.292,36.752 15.996,36.752C15.7,36.752 15.407,36.693 15.133,36.58C14.86,36.466 14.612,36.3 14.403,36.09L0.903,22.59C0.48,22.167 0.242,21.594 0.242,20.996C0.242,20.399 0.48,19.825 0.903,19.403C1.325,18.98 1.899,18.742 2.496,18.742C3.094,18.742 3.667,18.98 4.09,19.403L13.748,29.061L13.748,1.498C13.748,0.902 13.985,0.329 14.407,-0.093C14.829,-0.515 15.401,-0.752 15.998,-0.752C16.595,-0.752 17.167,-0.515 17.589,-0.093C18.011,0.329 18.248,0.902 18.248,1.498L18.248,29.061L27.906,19.401C28.329,18.978 28.902,18.741 29.5,18.741C30.098,18.741 30.671,18.978 31.094,19.401C31.516,19.823 31.754,20.397 31.754,20.994C31.754,21.592 31.516,22.166 31.094,22.588L31.09,22.59Z" transform="rotate(-180 15.998 18)" fill="#000000"/>
</svg>
