<svg width="46" height="42" viewBox="0 0 46 42" fill="none" xmlns="http://www.w3.org/2000/svg" xmlns:xlink="http://www.w3.org/1999/xlink">
<path d="M18.75,36.5C18.75,37.242 18.53,37.967 18.118,38.583C17.706,39.2 17.12,39.681 16.435,39.965C15.75,40.248 14.996,40.323 14.268,40.178C13.541,40.033 12.873,39.676 12.348,39.152C11.824,38.627 11.467,37.959 11.322,37.232C11.177,36.504 11.252,35.75 11.535,35.065C11.819,34.38 12.3,33.794 12.917,33.382C13.533,32.97 14.258,32.75 15,32.75C15.995,32.75 16.948,33.145 17.652,33.848C18.355,34.552 18.75,35.505 18.75,36.5ZM34.5,32.75C33.758,32.75 33.033,32.97 32.417,33.382C31.8,33.794 31.319,34.38 31.035,35.065C30.752,35.75 30.677,36.504 30.822,37.232C30.967,37.959 31.324,38.627 31.848,39.152C32.373,39.676 33.041,40.033 33.768,40.178C34.496,40.323 35.25,40.248 35.935,39.965C36.62,39.681 37.206,39.2 37.618,38.583C38.03,37.967 38.25,37.242 38.25,36.5C38.25,35.505 37.855,34.552 37.152,33.848C36.448,33.145 35.495,32.75 34.5,32.75ZM44.151,10.162L39.034,26.793C38.707,27.869 38.042,28.81 37.138,29.478C36.234,30.146 35.138,30.504 34.014,30.5L15.549,30.5C14.409,30.496 13.301,30.123 12.391,29.437C11.48,28.75 10.817,27.787 10.5,26.692L4.089,4.25L2.25,4.25C1.653,4.25 1.081,4.013 0.659,3.591C0.237,3.169 0,2.597 0,2C0,1.403 0.237,0.831 0.659,0.409C1.081,-0.013 1.653,-0.25 2.25,-0.25L4.654,-0.25C5.468,-0.247 6.26,0.019 6.91,0.51C7.56,1 8.033,1.688 8.259,2.471L9.626,7.25L42,7.25C42.352,7.25 42.699,7.333 43.014,7.491C43.328,7.65 43.601,7.88 43.81,8.163C44.019,8.447 44.159,8.775 44.218,9.122C44.277,9.469 44.254,9.825 44.151,10.162ZM38.953,11.75L10.911,11.75L14.827,25.456C14.872,25.613 14.967,25.751 15.097,25.849C15.228,25.947 15.386,26 15.549,26L34.014,26C34.175,26 34.331,25.949 34.461,25.854C34.59,25.759 34.685,25.625 34.732,25.471L38.953,11.75Z" fill="#000000"/>
</svg>
