<svg width="42" height="42" viewBox="0 0 42 42" fill="none" xmlns="http://www.w3.org/2000/svg" xmlns:xlink="http://www.w3.org/1999/xlink">
<path d="M20,-0.25C15.995,-0.25 12.08,0.938 8.75,3.163C5.42,5.388 2.824,8.55 1.291,12.251C-0.241,15.951 -0.642,20.022 0.139,23.951C0.92,27.879 2.849,31.487 5.681,34.319C8.513,37.151 12.121,39.08 16.049,39.861C19.978,40.642 24.049,40.241 27.749,38.709C31.45,37.176 34.612,34.58 36.837,31.25C39.062,27.92 40.25,24.005 40.25,20C40.244,14.631 38.109,9.484 34.312,5.688C30.516,1.891 25.369,-0.244 20,-0.25ZM10.919,32.857C11.964,31.429 13.331,30.267 14.908,29.466C16.486,28.665 18.231,28.248 20,28.248C21.769,28.248 23.514,28.665 25.092,29.466C26.669,30.267 28.036,31.429 29.081,32.857C26.427,34.739 23.254,35.75 20,35.75C16.746,35.75 13.573,34.739 10.919,32.857ZM14.75,18.5C14.75,17.462 15.058,16.447 15.635,15.583C16.212,14.72 17.032,14.047 17.991,13.65C18.95,13.252 20.006,13.148 21.024,13.351C22.043,13.553 22.978,14.053 23.712,14.788C24.447,15.522 24.947,16.457 25.149,17.476C25.352,18.494 25.248,19.55 24.85,20.509C24.453,21.468 23.78,22.288 22.917,22.865C22.053,23.442 21.038,23.75 20,23.75C18.608,23.75 17.272,23.197 16.288,22.212C15.303,21.228 14.75,19.892 14.75,18.5ZM32.375,29.739C30.917,27.884 29.058,26.383 26.938,25.347C28.289,23.979 29.205,22.242 29.572,20.354C29.938,18.466 29.738,16.512 28.996,14.737C28.255,12.963 27.005,11.447 25.404,10.381C23.803,9.315 21.923,8.747 20,8.747C18.077,8.747 16.197,9.315 14.596,10.381C12.995,11.447 11.745,12.963 11.004,14.737C10.262,16.512 10.062,18.466 10.428,20.354C10.795,22.242 11.711,23.979 13.063,25.347C10.942,26.383 9.083,27.884 7.625,29.739C5.793,27.417 4.652,24.626 4.333,21.685C4.013,18.745 4.528,15.774 5.818,13.113C7.109,10.452 9.122,8.207 11.629,6.637C14.135,5.067 17.033,4.234 19.991,4.234C22.948,4.234 25.846,5.067 28.352,6.637C30.859,8.207 32.872,10.452 34.163,13.113C35.453,15.774 35.968,18.745 35.648,21.685C35.329,24.626 34.188,27.417 32.356,29.739L32.375,29.739Z" fill="#000000"/>
</svg>
