<svg width="40" height="40" viewBox="0 0 40 40" fill="none" xmlns="http://www.w3.org/2000/svg" xmlns:xlink="http://www.w3.org/1999/xlink">
<path d="M20,-0.342C16.143,-0.342 12.373,0.802 9.166,2.945C5.96,5.087 3.46,8.133 1.984,11.696C0.508,15.259 0.122,19.18 0.875,22.962C1.627,26.745 3.484,30.22 6.211,32.947C8.939,35.674 12.413,37.531 16.196,38.284C19.978,39.036 23.899,38.65 27.462,37.174C31.025,35.698 34.071,33.199 36.214,29.992C38.356,26.785 39.5,23.015 39.5,19.158C39.495,13.988 37.438,9.031 33.783,5.376C30.127,1.72 25.17,-0.336 20,-0.342ZM28.561,15.719L18.061,26.219C17.922,26.359 17.757,26.47 17.574,26.545C17.392,26.621 17.197,26.659 17,26.659C16.803,26.659 16.608,26.621 16.426,26.545C16.243,26.47 16.078,26.359 15.939,26.219L11.439,21.719C11.157,21.438 10.999,21.056 10.999,20.658C10.999,20.26 11.157,19.878 11.439,19.597C11.72,19.315 12.102,19.157 12.5,19.157C12.898,19.157 13.28,19.315 13.561,19.597L17,23.038L26.439,13.597C26.578,13.458 26.744,13.347 26.926,13.272C27.108,13.196 27.303,13.157 27.5,13.157C27.697,13.157 27.892,13.196 28.074,13.272C28.256,13.347 28.422,13.458 28.561,13.597C28.701,13.736 28.811,13.902 28.887,14.084C28.962,14.266 29.001,14.461 29.001,14.658C29.001,14.855 28.962,15.05 28.887,15.233C28.811,15.415 28.701,15.58 28.561,15.719Z" fill="#01AB31"/>
</svg>
