<svg width="416" height="68" viewBox="0 0 416 68" fill="none" xmlns="http://www.w3.org/2000/svg" xmlns:xlink="http://www.w3.org/1999/xlink">
<path d="M34.26,60.904C19.782,60.904 7.425,47.773 7.425,33.451C7.425,19.181 19.524,5.79 34.156,5.79C43.774,5.79 50.7,10.443 56.337,17.733L63.42,17.733C61.3,13.907 59.025,10.392 55.561,7.651C49.614,2.843 41.91,0 34.26,0C15.905,0 0.963,15.149 0.963,33.4C0.963,51.702 16.113,66.696 34.363,66.696C41.809,66.696 49.099,63.957 54.942,59.355C58.614,56.408 61.198,52.581 63.681,48.651L56.598,48.651C51.012,55.942 43.878,60.904 34.26,60.904ZM107.678,26.006C103.233,20.267 97.182,16.648 89.686,16.648C76.243,16.648 65.179,27.56 65.179,41.002C65.179,54.443 76.296,65.456 89.686,65.456C97.494,65.456 102.921,62.198 107.678,56.2L107.678,64.368L113.521,64.368L113.521,17.784L107.678,17.784L107.678,26.006ZM89.377,60.078C79.086,60.078 70.969,51.134 70.969,41.053C70.969,31.021 79.035,22.026 89.377,22.026C99.665,22.026 107.678,31.024 107.678,41.053C107.678,51.134 99.612,60.078 89.377,60.078ZM120.604,64.368L126.862,64.368L126.862,1.342L120.604,1.342L120.604,64.368ZM150.489,56.974L134.668,17.784L128.462,17.784L147.438,64.368L153.745,64.368L172.67,17.784L166.569,17.784L150.489,56.974ZM175.254,64.368L181.51,64.368L181.51,17.784L175.254,17.784L175.254,64.368ZM175.254,11.787L181.51,11.787L181.51,1.342L175.254,1.342L175.254,11.787ZM208.449,16.646C202.553,16.646 198.366,19.75 194.489,23.886L194.489,17.784L188.697,17.784L188.697,64.368L194.849,64.368L194.849,35.982C194.798,28.486 201.001,22.024 208.551,22.024C218.009,22.024 222.767,30.246 222.767,38.725L222.767,64.371L228.557,64.371L228.557,38.725C228.559,26.627 221.477,16.646 208.449,16.646ZM286.621,1.342L258.185,37.483L258.185,1.342L252.033,1.342L252.033,64.368L258.185,64.368L258.185,47.048L266.251,37.019L286.777,64.368L294.587,64.368L270.179,32.054L294.587,1.342L286.621,1.342ZM296.859,64.368L302.963,64.368L302.963,1.342L296.859,1.342L296.859,64.368ZM353.475,29.52C349.235,21.609 340.755,16.646 331.809,16.646C318.473,16.646 307.199,27.763 307.199,41.102C307.199,54.542 318.575,65.454 331.917,65.454C338.273,65.454 344.533,62.92 349.131,58.526C351.925,55.889 353.579,52.579 355.075,49.115L348.513,49.115C345.201,55.579 339.359,60.075 331.807,60.075C327.209,60.075 322.711,58.214 319.299,55.06C315.779,51.856 314.231,47.924 313.557,43.273L356.525,43.273C356.529,38.414 355.853,33.76 353.475,29.52ZM313.767,37.896C315.631,29.16 322.505,22.024 331.917,22.024C339.827,22.024 348.307,26.885 350.169,37.896L313.767,37.896ZM361.077,64.368L367.227,64.368L367.227,17.784L361.077,17.784L361.077,64.368ZM361.077,11.995L367.227,11.995L367.227,1.342L361.077,1.342L361.077,11.995ZM394.271,16.646C388.271,16.646 384.083,19.75 380.153,23.886L380.153,17.784L374.259,17.784L374.259,64.368L380.465,64.368L380.465,35.982C380.413,28.435 386.773,22.024 394.371,22.024C403.785,22.024 408.749,30.246 408.749,38.725L408.749,64.371L414.539,64.371L414.539,38.725C414.539,26.627 407.349,16.646 394.271,16.646Z" clip-rule="evenodd" fill-rule="evenodd" fill="#FFFFFF"/>
</svg>
