<svg width="42" height="42" viewBox="0 0 42 42" fill="none" xmlns="http://www.w3.org/2000/svg" xmlns:xlink="http://www.w3.org/1999/xlink">
<path d="M39.592,36.408L30.688,27.5C33.357,24.021 34.604,19.656 34.174,15.292C33.744,10.928 31.671,6.89 28.373,3.999C25.076,1.107 20.803,-0.422 16.42,-0.279C12.037,-0.135 7.872,1.67 4.771,4.771C1.67,7.872 -0.135,12.037 -0.279,16.42C-0.422,20.803 1.107,25.076 3.999,28.373C6.89,31.671 10.928,33.744 15.292,34.174C19.656,34.604 24.021,33.357 27.5,30.688L36.412,39.601C36.621,39.811 36.87,39.977 37.143,40.09C37.417,40.203 37.71,40.261 38.006,40.261C38.302,40.261 38.595,40.203 38.868,40.09C39.142,39.977 39.39,39.811 39.599,39.601C39.809,39.392 39.975,39.144 40.088,38.87C40.201,38.597 40.26,38.304 40.26,38.008C40.26,37.712 40.201,37.418 40.088,37.145C39.975,36.872 39.809,36.623 39.599,36.414L39.592,36.408ZM4.25,17C4.25,14.478 4.998,12.013 6.399,9.916C7.8,7.82 9.791,6.186 12.121,5.221C14.451,4.256 17.014,4.003 19.487,4.495C21.961,4.987 24.233,6.201 26.016,7.984C27.799,9.768 29.013,12.039 29.505,14.513C29.997,16.986 29.745,19.549 28.779,21.879C27.814,24.209 26.18,26.2 24.084,27.601C21.987,29.002 19.522,29.75 17,29.75C13.62,29.747 10.379,28.402 7.988,26.012C5.598,23.621 4.253,20.38 4.25,17Z" fill="#000000" fill-opacity="0.4"/>
</svg>
