<svg width="42" height="32" viewBox="0 0 42 32" fill="none" xmlns="http://www.w3.org/2000/svg" xmlns:xlink="http://www.w3.org/1999/xlink">
<path d="M38,0.25L2,0.25C1.403,0.25 0.831,0.487 0.409,0.909C-0.013,1.331 -0.25,1.903 -0.25,2.5L-0.25,28C-0.25,28.995 0.145,29.948 0.848,30.652C1.552,31.355 2.505,31.75 3.5,31.75L36.5,31.75C37.495,31.75 38.448,31.355 39.152,30.652C39.855,29.948 40.25,28.995 40.25,28L40.25,2.5C40.25,1.903 40.013,1.331 39.591,0.909C39.169,0.487 38.597,0.25 38,0.25ZM20,15.948L7.784,4.75L32.216,4.75L20,15.948ZM13.398,16L4.25,24.385L4.25,7.615L13.398,16ZM16.728,19.052L18.479,20.659C18.894,21.04 19.437,21.251 20,21.251C20.563,21.251 21.106,21.04 21.521,20.659L23.272,19.052L32.216,27.25L7.784,27.25L16.728,19.052ZM26.602,16L35.75,7.615L35.75,24.385L26.602,16Z" fill="#000000" fill-opacity="0.4"/>
</svg>
