<svg width="28" height="26" viewBox="0 0 28 26" fill="none" xmlns="http://www.w3.org/2000/svg" xmlns:xlink="http://www.w3.org/1999/xlink">
<path d="M13.214,0.453C6.032,0.453 0.254,6.231 0.254,13.413C0.254,19.137 3.98,23.997 9.11,25.725C9.758,25.833 9.974,25.455 9.974,25.077C9.974,24.753 9.974,23.943 9.974,22.863C6.356,23.673 5.6,21.135 5.6,21.135C5.006,19.623 4.142,19.245 4.142,19.245C2.954,18.435 4.25,18.435 4.25,18.435C5.546,18.543 6.248,19.785 6.248,19.785C7.382,21.783 9.272,21.189 10.028,20.865C10.136,20.001 10.46,19.461 10.838,19.137C7.976,18.813 4.952,17.679 4.952,12.711C4.952,11.307 5.438,10.119 6.302,9.255C6.194,8.931 5.708,7.635 6.41,5.799C6.41,5.799 7.49,5.475 9.974,7.149C11,6.879 12.134,6.717 13.214,6.717C14.294,6.717 15.428,6.879 16.454,7.149C18.938,5.475 20.018,5.799 20.018,5.799C20.72,7.581 20.288,8.877 20.126,9.255C20.936,10.173 21.476,11.307 21.476,12.711C21.476,17.679 18.452,18.759 15.536,19.083C16.022,19.461 16.4,20.271 16.4,21.459C16.4,23.187 16.4,24.591 16.4,25.023C16.4,25.347 16.616,25.779 17.318,25.671C22.448,23.997 26.174,19.137 26.174,13.413C26.174,6.231 20.396,0.453 13.214,0.453Z" clip-rule="evenodd" fill-rule="evenodd" fill="#000000"/>
</svg>
