<svg width="24" height="14" viewBox="0 0 24 14" fill="none" xmlns="http://www.w3.org/2000/svg" xmlns:xlink="http://www.w3.org/1999/xlink">
<path d="M23.061,3.061L13.061,13.061C12.922,13.201 12.756,13.312 12.574,13.388C12.392,13.463 12.196,13.502 11.999,13.502C11.801,13.502 11.606,13.463 11.424,13.388C11.241,13.312 11.076,13.201 10.936,13.061L0.936,3.061C0.654,2.779 0.496,2.397 0.496,1.999C0.496,1.6 0.654,1.218 0.936,0.936C1.218,0.654 1.6,0.496 1.999,0.496C2.397,0.496 2.779,0.654 3.061,0.936L12,9.875L20.939,0.935C21.221,0.653 21.603,0.495 22.001,0.495C22.4,0.495 22.782,0.653 23.064,0.935C23.346,1.217 23.504,1.599 23.504,1.998C23.504,2.396 23.346,2.778 23.064,3.06L23.061,3.061Z" fill="#000000"/>
</svg>
