<svg width="314" height="66" viewBox="0 0 314 66" fill="none" xmlns="http://www.w3.org/2000/svg" xmlns:xlink="http://www.w3.org/1999/xlink">
<path d="M283.587,18.587L283.005,18.771C280.737,14.084 277.499,10.353 273.287,7.578C269.141,4.803 263.927,3.415 257.643,3.415C254.145,3.415 250.809,4.124 247.635,5.543C244.461,6.899 241.675,8.842 239.279,11.37C236.947,13.837 235.069,16.828 233.643,20.344C232.217,23.859 231.505,27.744 231.505,31.999C231.505,36.255 232.217,40.14 233.643,43.655C235.069,47.17 236.947,50.192 239.279,52.721C241.675,55.187 244.461,57.099 247.635,58.456C250.809,59.813 254.145,60.491 257.643,60.491C263.863,60.491 268.915,59.566 272.801,57.716C276.753,55.804 280.089,52.906 282.811,49.02L283.393,49.205L283.199,55.125C281.709,56.605 279.993,57.931 278.049,59.103C276.107,60.213 274.001,61.169 271.733,61.971C269.531,62.711 267.231,63.266 264.835,63.636C262.439,64.068 260.041,64.284 257.645,64.284C252.657,64.284 247.895,63.513 243.361,61.971C238.827,60.429 234.843,58.271 231.409,55.496C227.975,52.659 225.255,49.267 223.247,45.32C221.239,41.312 220.235,36.871 220.235,31.999C220.235,27.127 221.239,22.718 223.247,18.771C225.255,14.762 227.975,11.34 231.409,8.503C234.843,5.666 238.827,3.507 243.361,2.027C247.895,0.486 252.657,-0.285 257.645,-0.285C260.041,-0.285 262.439,-0.1 264.835,0.27C267.231,0.64 269.531,1.226 271.733,2.027C274.001,2.767 276.107,3.723 278.049,4.895C279.993,6.005 281.709,7.3 283.199,8.78L283.587,18.587ZM69.467,36.255C68.755,36.563 68.075,36.964 67.427,37.459C66.779,37.952 66.455,38.63 66.455,39.494L66.455,50.872C63.345,55.127 59.361,58.427 54.503,60.77C49.645,63.114 44.268,64.285 38.373,64.285C33.385,64.285 28.624,63.514 24.089,61.973C19.555,60.431 15.571,58.272 12.138,55.497C8.704,52.66 5.984,49.269 3.975,45.322C1.967,41.313 0.963,36.873 0.963,32.001C0.963,27.129 1.967,22.719 3.975,18.772C5.984,14.764 8.704,11.341 12.138,8.504C15.571,5.667 19.555,3.509 24.089,2.029C28.624,0.487 33.385,-0.284 38.373,-0.284C40.77,-0.284 43.167,-0.099 45.564,0.271C47.96,0.641 50.26,1.227 52.462,2.029C54.73,2.769 56.835,3.725 58.778,4.897C60.722,6.007 62.438,7.302 63.928,8.782L64.318,18.587L63.735,18.772C61.467,14.085 58.228,10.354 54.018,7.578C49.872,4.803 44.657,3.416 38.374,3.416C34.876,3.416 31.54,4.125 28.366,5.543C25.191,6.9 22.406,8.843 20.009,11.371C17.677,13.838 15.798,16.829 14.373,20.344C12.948,23.859 12.235,27.745 12.235,32C12.235,36.194 12.916,40.048 14.276,43.563C15.701,47.078 17.58,50.1 19.912,52.629C22.309,55.096 25.094,57.038 28.268,58.457C31.442,59.813 34.811,60.492 38.374,60.492C45.111,60.492 50.876,59.258 55.67,56.792L55.67,39.493C55.67,38.63 55.314,37.952 54.601,37.458C53.953,36.965 53.305,36.564 52.658,36.255L52.747,35.793C53.07,35.849 53.653,35.911 54.496,35.977C55.338,36.033 56.213,36.095 57.119,36.161L65.476,36.161C66.254,36.105 66.999,36.044 67.711,35.977C68.423,35.921 68.974,35.859 69.363,35.793L69.467,36.255ZM139.847,1.658C139.199,1.966 138.551,2.367 137.904,2.861C137.256,3.354 136.9,4.279 136.836,5.636C136.777,7.117 136.712,8.997 136.642,11.279C136.642,13.5 136.612,16.028 136.553,18.865C136.553,21.702 136.524,24.785 136.464,28.115L136.464,38.476C136.405,42.485 135.887,45.907 134.909,48.744C133.937,51.581 132.642,53.955 131.022,55.867C129.468,57.779 127.719,59.29 125.775,60.4C123.897,61.51 122.018,62.343 120.14,62.898C118.326,63.515 116.609,63.885 114.99,64.008C113.37,64.193 112.107,64.285 111.2,64.285C107.508,64.285 103.945,63.823 100.512,62.898C97.078,62.035 94.066,60.616 91.475,58.642C88.884,56.669 86.811,54.109 85.256,50.964C83.702,47.819 82.924,43.996 82.924,39.494L82.924,29.041L82.924,19.42C82.924,16.459 82.895,13.808 82.835,11.464C82.835,9.059 82.806,7.116 82.746,5.636C82.687,4.28 82.331,3.355 81.678,2.861C81.03,2.368 80.382,1.967 79.735,1.658L79.824,1.196C80.147,1.253 80.666,1.314 81.379,1.38C82.156,1.437 82.934,1.498 83.711,1.565C84.554,1.565 85.363,1.593 86.14,1.649L89.638,1.649C90.416,1.593 91.225,1.565 92.068,1.565C92.91,1.508 93.687,1.447 94.4,1.38C95.177,1.324 95.727,1.263 96.051,1.196L96.14,1.658C95.427,1.966 94.747,2.367 94.099,2.861C93.516,3.354 93.192,4.279 93.127,5.636C93.068,7.116 93.003,9.059 92.933,11.464L92.933,39.494C92.933,46.216 94.585,51.18 97.889,54.387C101.192,57.594 106.083,59.197 112.561,59.197C114.44,59.197 116.577,58.981 118.974,58.549C121.371,58.056 123.606,57.069 125.679,55.589C127.817,54.109 129.598,52.012 131.023,49.299C132.513,46.585 133.258,42.977 133.258,38.475C133.258,33.603 133.228,29.441 133.169,25.987C133.169,22.472 133.139,19.481 133.08,17.014C133.08,14.486 133.051,12.327 132.991,10.539C132.932,8.75 132.868,7.116 132.798,5.636C132.738,4.279 132.382,3.354 131.729,2.861C131.081,2.368 130.433,1.967 129.786,1.658L129.875,1.196C130.587,1.319 131.397,1.442 132.304,1.566C133.21,1.623 134.053,1.651 134.83,1.651C135.543,1.651 136.352,1.623 137.26,1.566C138.231,1.443 139.073,1.32 139.786,1.196L139.847,1.658ZM210.355,18.587L209.773,18.771C207.505,14.084 204.267,10.353 200.056,7.578C195.91,4.803 190.695,3.415 184.412,3.415C180.914,3.415 177.578,4.124 174.403,5.543C171.229,6.899 168.444,8.842 166.047,11.37C163.715,13.837 161.836,16.828 160.411,20.344C158.986,23.859 158.274,27.744 158.274,31.999C158.274,36.255 158.986,40.14 160.411,43.655C161.837,47.17 163.715,50.192 166.047,52.721C168.444,55.187 171.229,57.099 174.403,58.456C177.578,59.813 180.914,60.491 184.412,60.491C190.631,60.491 195.683,59.566 199.57,57.716C203.521,55.804 206.857,52.906 209.577,49.02L210.161,49.205L209.967,55.125C208.477,56.605 206.761,57.931 204.817,59.103C202.873,60.213 200.769,61.169 198.502,61.971C196.299,62.711 194,63.266 191.603,63.636C189.206,64.068 186.809,64.284 184.412,64.284C179.424,64.284 174.663,63.513 170.129,61.971C165.594,60.429 161.61,58.271 158.177,55.496C154.744,52.659 152.023,49.267 150.015,45.32C148.007,41.311 147.003,36.871 147.003,31.999C147.003,27.127 148.007,22.718 150.015,18.771C152.023,14.762 154.744,11.34 158.177,8.503C161.61,5.666 165.594,3.507 170.129,2.027C174.663,0.486 179.424,-0.285 184.412,-0.285C186.809,-0.285 189.206,-0.1 191.603,0.27C194,0.64 196.299,1.226 198.502,2.027C200.769,2.767 202.873,3.723 204.817,4.895C206.761,6.005 208.477,7.3 209.967,8.78L210.355,18.587ZM312.875,62.712C312.551,62.656 312.001,62.594 311.223,62.528C310.511,62.528 309.733,62.499 308.891,62.443C308.049,62.443 307.239,62.415 306.461,62.358L300.633,62.358C299.855,62.415 299.077,62.476 298.301,62.543C297.587,62.599 297.037,62.661 296.649,62.727L296.559,62.356C297.207,62.048 297.855,61.647 298.503,61.153C299.151,60.66 299.507,59.735 299.571,58.378C299.631,56.898 299.661,55.356 299.661,53.753C299.719,52.149 299.749,50.33 299.749,48.295L299.749,41.357L299.749,32.014L299.749,22.671L299.749,15.64C299.749,13.605 299.719,11.817 299.661,10.275C299.661,8.672 299.631,7.13 299.571,5.65C299.513,4.293 299.157,3.368 298.503,2.875C297.855,2.32 297.207,1.888 296.559,1.58L296.649,1.21C297.037,1.333 297.587,1.425 298.301,1.487C299.077,1.487 299.855,1.515 300.633,1.572C301.475,1.628 302.285,1.656 303.061,1.656L306.461,1.656C307.239,1.6 308.049,1.572 308.891,1.572C309.733,1.515 310.511,1.454 311.223,1.387C312.001,1.331 312.551,1.269 312.875,1.203L312.963,1.574C312.251,1.882 311.571,2.313 310.923,2.868C310.339,3.361 310.015,4.286 309.951,5.643C309.891,7.123 309.827,8.665 309.757,10.269L309.757,53.746C309.815,55.35 309.881,56.892 309.951,58.372C310.009,59.728 310.333,60.653 310.923,61.147C311.571,61.64 312.251,62.041 312.963,62.35L312.875,62.712Z" fill="#FFFFFF"/>
</svg>
