<svg width="390" height="64" viewBox="0 0 390 64" fill="none" xmlns="http://www.w3.org/2000/svg" xmlns:xlink="http://www.w3.org/1999/xlink">
<path d="M0.963,1.804L6.828,8.417L6.828,56.821L2.481,63.155L29.1,63.196L24.302,57.368L23.804,39.936L49.471,40.075C57.25,37.485 65.248,31.963 65.632,20.799C65.509,9.981 58.904,3.042 51.235,1.661L0.963,1.804ZM22.853,4.899L22.853,35.995L42.546,36.138C47.026,32.524 50.423,29.757 50.287,21.082C50.223,14.009 48.73,7.84 42.138,4.901L22.853,4.899ZM77.951,1.451L83.815,8.066L83.815,56.47L79.469,62.807L106.086,62.844L101.288,57.017L100.79,39.584L100.897,39.584L128.396,63.041L151.218,62.855L130.389,44.839L113.001,44.839L106.872,39.618L126.456,39.724C134.236,37.134 142.232,31.612 142.618,20.448C142.496,9.631 135.891,2.691 128.221,1.312L77.951,1.451ZM99.839,4.546L99.839,35.643L119.531,35.785C124.014,32.172 127.409,29.405 127.273,20.728C127.209,13.656 125.716,7.486 119.124,4.546L99.839,4.546ZM173.19,1.381L196.142,1.381L226.019,56.821C227.311,61.102 231.179,60.574 233.759,62.451L204.833,62.451L209.179,61.091L208.907,56.964L201.437,45.002L176.042,45.144L170.61,56.683C170.429,57.996 169.025,58.992 170.066,60.622L172.104,62.592L159.61,62.31L165.043,60.622L185.548,17.424L185.548,14.467L176.885,2.91L173.19,1.381ZM177.647,41.195L188.195,21.225L199.178,41.083L177.647,41.195ZM328.393,1.502L351.343,1.502L381.221,56.942C382.515,61.223 386.381,60.695 388.963,62.572L360.035,62.572L364.381,61.21L364.109,57.082L356.641,45.123L331.245,45.265L325.813,56.802C325.629,58.117 324.227,59.113 325.267,60.743L327.305,62.713L314.813,62.431L320.247,60.743L340.751,17.545L340.751,14.587L332.087,3.031L328.393,1.502ZM332.851,41.318L343.399,21.347L354.381,41.203L332.851,41.318ZM241.697,0.804L282.583,1.03C295.751,4.113 304.127,12.157 306.725,26.19L306.615,37.134C304.215,49.637 296.349,58.264 282.475,62.631L241.479,62.746L241.473,61.421C247.707,60.951 248.205,60.239 248.221,56.54L248.221,6.67C248.151,3.935 247.603,2.232 241.587,2.044L241.697,0.804ZM264.939,5.072L264.899,59.027C270.291,59.045 274.969,59.55 277.613,58.202C283.601,55.466 286.383,51.266 286.637,47.32L286.493,15.46C286.495,10.364 280.963,6.765 277.771,5.828C275.487,4.982 270.929,4.948 264.939,5.072Z" clip-rule="evenodd" fill-rule="evenodd" fill="#FFFFFF" stroke="#FFFFFF" stroke-width="1.024" stroke-miterlimit="2.613"/>
</svg>
