<svg width="32" height="38" viewBox="0 0 32 38" fill="none" xmlns="http://www.w3.org/2000/svg" xmlns:xlink="http://www.w3.org/1999/xlink">
<path d="M31.094,22.59L17.594,36.09C17.385,36.3 17.136,36.466 16.863,36.58C16.589,36.693 16.296,36.752 16,36.752C15.704,36.752 15.411,36.693 15.137,36.58C14.864,36.466 14.615,36.3 14.406,36.09L0.906,22.59C0.484,22.167 0.246,21.594 0.246,20.996C0.246,20.399 0.484,19.825 0.906,19.403C1.329,18.98 1.902,18.742 2.5,18.742C3.098,18.742 3.671,18.98 4.094,19.403L13.752,29.061L13.752,1.498C13.752,0.902 13.989,0.329 14.411,-0.093C14.833,-0.515 15.405,-0.752 16.002,-0.752C16.599,-0.752 17.171,-0.515 17.593,-0.093C18.015,0.329 18.252,0.902 18.252,1.498L18.252,29.061L27.91,19.401C28.333,18.978 28.906,18.741 29.504,18.741C30.101,18.741 30.675,18.978 31.097,19.401C31.52,19.823 31.758,20.397 31.758,20.994C31.758,21.592 31.52,22.166 31.097,22.588L31.094,22.59Z" transform="rotate(-180 16.002 18)" fill="#000000"/>
</svg>
